<svg width="117" height="117" viewBox="0 0 117 117" fill="none" xmlns="http://www.w3.org/2000/svg">
<path d="M27.9912 101.354C19.0762 101.354 14.9424 97.2207 14.9424 88.3057V77.5479C14.9424 76.502 14.6934 75.8047 13.9463 75.0078L6.32617 67.3379C0.0507812 61.0625 0.000976562 55.2354 6.32617 48.96L13.9463 41.29C14.6934 40.543 14.9424 39.7959 14.9424 38.7998V27.9922C14.9424 19.0273 19.0762 14.9434 27.9912 14.9434H38.7988C39.7949 14.9434 40.542 14.6943 41.2891 13.9473L48.959 6.32715C55.2344 0.0517578 61.0615 0.00195312 67.3369 6.32715L75.0068 13.9473C75.8037 14.6943 76.501 14.9434 77.5469 14.9434H88.3047C97.2695 14.9434 101.354 19.127 101.354 27.9922V38.7998C101.354 39.7959 101.652 40.543 102.399 41.29L110.02 48.96C116.295 55.2354 116.345 61.0625 110.02 67.3379L102.399 75.0078C101.652 75.8047 101.354 76.502 101.354 77.5479V88.3057C101.354 97.2705 97.2197 101.354 88.3047 101.354H77.5469C76.501 101.354 75.8037 101.653 75.0068 102.4L67.3369 110.021C61.0615 116.296 55.2344 116.346 48.959 110.021L41.2891 102.4C40.542 101.653 39.7949 101.354 38.7988 101.354H27.9912Z" fill="#8B5CF6"/>
</svg>
